<?xml version="1.0" encoding="UTF-8"?>
<svg id="Layer_1" data-name="Layer 1" xmlns="http://www.w3.org/2000/svg" viewBox="0 0 258.53 52.47">
  <defs>
    <style>
      .cls-1 {
        fill: #fbfcfb;
      }

      .cls-2 {
        fill: #b0bab7;
      }

      .cls-3 {
        fill: #b2bbb8;
      }

      .cls-4 {
        fill: #b2b9b8;
      }

      .cls-5 {
        fill: #038d46;
      }

      .cls-6 {
        fill: #b1bcb9;
      }

      .cls-7 {
        fill: #0b914c;
      }

      .cls-8 {
        fill: #b4bbba;
      }

      .cls-9 {
        fill: #0b904c;
      }

      .cls-10 {
        fill: #fbfcfc;
      }

      .cls-11 {
        fill: #acbbb5;
      }

      .cls-12 {
        fill: #1c9859;
      }

      .cls-13 {
        fill: #adbbb5;
      }

      .cls-14 {
        fill: #afbcb7;
      }

      .cls-15 {
        fill: #b3b9b9;
      }

      .cls-16 {
        fill: #abbab4;
      }
    </style>
  </defs>
  <g>
    <path class="cls-5" d="M69.9,52.47H8.3c-1.4-.1-2.79-.34-4.14-.73-2.46-.55-5-4.86-3.89-7.44,2-4.64,3.79-9.35,5.77-14,2.69-6.27,5.34-12.57,8.27-18.72C17.75,4.36,23.44.26,31.66.24c28.87-.06,57.75-.11,86.63-.15,11.83,0,23.66-.12,35.5-.09,1.51.04,3,.33,4.41.86,2.63.96,4.22,3.64,3.81,6.41-.14,1.35-.48,2.68-1,3.93-4.36,10.06-8.59,20.19-13.26,30.1-3.3,7-9,10.93-17,10.94h-60.84v.23ZM77.81,27.03c-1.47.3-3,.5-4.41.92-3.26.79-5.6,3.65-5.75,7-.53,4.73,3.26,9.07,7.82,8.92,2.21.14,4.42.12,6.63-.06,6.88-1,9.86-4.54,9.88-11.48v-7.58c0-4.6-1.92-7.17-6.47-7.88-2.75-.28-5.52-.39-8.29-.35-4.54-.13-8.28,3-8.57,7.19l1.62-.07c1.92,0,3.83.05,5.75.05.32,0,.79-.07.94-.29,1.14-1.63,2.79-1.6,4.48-1.47.18.08.35.17.5.29.58.61,1.59,1.25,1.57,1.85s-.92,1.42-1.47,2.11c-.18.16-.38.29-.6.39l-.48.15-1,.15-1.51.21-.64-.05ZM63.56,16.72h-.61l-.88.08c-5.86-.3-10.9,4.08-11.43,9.92-.4,5.27-.26,10.59-.37,15.89,0,.86.44,1,1.14,1h6.51c.29,0,.58-.25.86-.39,0-.2.06-.4.06-.59,0-4.55,0-9.09.06-13.63.06-3.42,1.92-5.24,5.26-5.35h2.59v-6.93h-3.19ZM103.92,16.46c-4.44-.2-8.24,2.18-9.52,6.21-.49,1.64-.75,3.35-.77,5.06-.1,4.75,0,9.51-.08,14.26,0,1.51.51,1.91,1.87,1.47h6.47c.11-.23.15-.27.15-.32,0-5.49,0-11,.06-16.47,0-2.92,1.24-4.19,4.19-4.43,2.83,1.07,3.43,1.95,3.43,5.08,0,4.23,0,8.47,0,12.7,0,2.57,1.35,3.74,3.92,3.45h4.32c0-6.28.31-12.48-.09-18.64-.31-4.8-3.14-7.39-7.92-8.18-1.99-.19-3.99-.24-5.99-.16l-.04-.03ZM139.45,9.21h-1.86v9.21c-2.14-1.68-4.88-2.41-7.57-2-4.07-.31-7.87,2.06-9.36,5.86-1.93,4.8-2.03,10.14-.27,15,1.47,3.89,5.18,6.46,9.34,6.47,2.06.16,4.13.19,6.19.11,6.19-.58,9.75-4.08,10-10.29.27-7.07.13-14.14.1-21.21-.05-1.76-1.47-3.16-3.23-3.19-1.12-.01-2.23.05-3.34.07v-.03ZM22.96,9.03c-.68,0-1.35.08-2,.26-1.71.76-2.15,2.29-2.16,4v29c.02.39.07.78.13,1.17l1.68-.1c3.07,0,6.15.09,9.23.07s6.14-.12,9.22-.19h.32c1.09-.2,2.16-.47,3.21-.81,3.62-1.19,6.1-4.55,6.18-8.36.3-4-.86-7.29-4.88-9-.07,0-.09-.16-.13-.24,2.46-1.88,3.12-2.74,3.58-4.65,1.39-5.78-1.6-10.43-7.54-10.87-5.65-.46-11.26-.22-16.84-.28Z"/>
    <rect class="cls-5" x="14.56" y="6.2" width="134.36" height="39.5" rx="8.98" ry="8.98"/>
  </g>
  <g>
    <path class="cls-7" d="M224.92,36.24c.63,2.96,3.28,5.06,6.31,5h8.65c1,0,2.1.1,2.13,1.36s-1,1.5-2.15,1.49h-8.19c-5.21.2-9.62-3.8-9.92-9-.14-1.71-.14-3.44,0-5.15.43-4.91,4.52-8.69,9.45-8.73h3.94c4.7.03,8.67,3.48,9.36,8.13.19,1.66.24,3.33.13,5,0,1.3-1,1.94-2.56,1.94h-15.48l-1.67-.04ZM241.84,33.33v-2.37c.1-3.77-2.88-6.9-6.66-7-.11,0-.23,0-.34,0h-2.58c-5.55,0-8.53,3.66-7.52,9.34l17.1.03Z"/>
    <path class="cls-7" d="M217.69,36.14v6.06c0,1.06-.36,1.88-1.5,1.85s-1.36-.85-1.36-1.83v-11.07c.21-3.74-2.65-6.94-6.39-7.15-.25-.01-.49-.01-.74,0h-2.58c-4.84,0-7.57,2.75-7.57,7.64v10.32c0,1.05-.11,2.07-1.39,2.09s-1.48-1-1.47-2v-11.23c0-5.31,4.31-9.62,9.62-9.62.02,0,.05,0,.07,0h3.64c5.31,0,9.62,4.3,9.63,9.61,0,.02,0,.03,0,.05.05,1.74.04,3.51.04,5.28Z"/>
    <path class="cls-12" d="M214.12,13.94c-4.74.37-13.1,1-21.47,1.68-.86-.06-1.63.5-1.83,1.34-.42,1.26-1.7,2.01-3,1.77-1.32-.09-2.4-1.08-2.6-2.39-.31-1.29.33-2.62,1.53-3.18,1.12-.73,2.61-.5,3.46.53.54.65,1.42.93,2.24.72,13.64-1.41,27.3-2.45,41-1.35,5.72.46,11.36,1.34,16.65,3.72,3.71,1.67,6.73,4.07,8,8.19.69,2.61.55,5.37-.42,7.89-1.44,4.5-4.06,8.34-6.91,12-.21.26-.73.29-1.1.43,0-.4.06-.8.21-1.17,1.83-3,3.9-5.8,5.48-8.88.95-2,1.57-4.15,1.81-6.35.48-3.35-.96-6.69-3.71-8.65-3.72-2.95-8.18-4.11-12.72-5-7.6-1.37-15.28-1.45-26.62-1.3ZM187.97,17.94c.8-.95,1.64-1.53,1.58-2-.18-.71-.7-1.29-1.39-1.54-.37-.1-1.38.76-1.43,1.26s.62,1.22,1.24,2.27h0Z"/>
    <path class="cls-7" d="M165.33,25.58v-9.11c0-1.11.13-2.19,1.47-2.16s1.39,1,1.38,2.11v17.6c0,4.56,2.7,7.23,7.28,7.24h7.13c1,0,1.92.3,1.92,1.43s-.89,1.43-1.92,1.42h-8c-5.05-.1-9.12-4.19-9.19-9.24-.12-3.12-.07-6.17-.07-9.29Z"/>
    <path class="cls-9" d="M189.59,32.93v9.09c0,1.06-.18,2.05-1.45,2s-1.41-1-1.41-2.07v-18.47c0-1.08.22-2.05,1.45-2s1.42,1,1.41,2.08c-.06,3.14,0,6.24,0,9.37Z"/>
  </g>
  <g>
    <path class="cls-10" d="M38.59,43.2c-3.08.07-6.15.17-9.22.19s-6.16,0-9.23-.07c0-.55-.06-1.11-.06-1.66,0-9.24.05-18.47,0-27.71,0-2.17.59-3.83,2.49-4.94,5.6.06,11.21-.18,16.78.24,5.94.44,8.93,5.09,7.54,10.87-.46,1.91-1.12,2.77-3.59,4.65,0,.08.07.21.14.24,4,1.69,5.18,4.95,4.88,9-.08,3.81-2.56,7.17-6.18,8.36-1.05.34-2.12.61-3.21.81l-.34.02ZM35.59,22.2c3,.18,4.61-1.22,4.54-3.95-.07-2.27-1.68-3.42-4.6-3.29h-8.37v7.24h8.43ZM35.59,28.2h-8.54v9h8.57l.57-.06c2.45.12,3.95-.77,4.57-2.7,1.2-3.85-.96-6.43-5.17-6.23h0Z"/>
    <path class="cls-1" d="M129.65,16.47c2.69-.41,5.43.32,7.57,2l1.47,1.66.39-.2v-10.71c1.11,0,2.22-.08,3.33,0,1.76.03,3.18,1.43,3.23,3.19,0,7.07.17,14.14-.1,21.21-.24,6.21-3.8,9.71-10,10.29-2.07.08-4.14.05-6.2-.11-.24-.16-.5-.29-.77-.4-3.7-.85-6.55-3.81-7.26-7.54-.59-2.49-.81-5.06-.64-7.61.3-2.54,1.02-5.01,2.12-7.32,1.29-2.8,4.04-3.8,6.86-4.46ZM133.52,22.54c-3-.07-4.59,1-5.46,3.89-.79,2.57-.82,5.3-.1,7.89.43,2.39,2.58,4.08,5,3.94,2.58.09,4.31-.83,5.16-3.08,1.37-3.3,1.26-7.03-.3-10.25-.72-1.69-2.49-2.67-4.3-2.39h0Z"/>
    <path class="cls-1" d="M78.06,27.01l1.51-.21,1-.15.52-.13c.99-.11,1.97-.35,2.91-.7.93-.41,1.35-1.49.94-2.41-.18-.42-.52-.75-.94-.94-.93-.31-1.89-.51-2.87-.59-1.69-.13-3.34-.16-4.48,1.47-.15.22-.62.29-.94.29-1.92,0-3.83,0-5.75-.05.31-3.08,2.46-5.67,5.43-6.54l1.52-.58c2.77-.04,5.54.07,8.29.35,4.55.71,6.48,3.28,6.47,7.88v7.58c0,6.94-3,10.5-9.88,11.48-2.21.18-4.42.2-6.63.06-.58-.29-1.14-.59-1.72-.87-5.06-2.49-6.09-9.8-1.68-13.27,1.58-1.24,3.81-1.65,5.75-2.44l.55-.23ZM83.21,30.69c-1.79.5-3.63.87-5.36,1.52-1.63.51-2.58,2.19-2.19,3.85.31,1.6,1.38,2.41,3.27,2.48,4.58.19,6.94-3.09,5.93-8.43l-1.65.58Z"/>
    <path class="cls-10" d="M105.92,22.25c-3,.24-4.17,1.51-4.19,4.43,0,5.49,0,11-.06,16.47,0,.05,0,.09-.15.32h-6.47c0-5.9-.16-11.8,0-17.68-.07-3.71,2.17-7.06,5.62-8.42.91-.38,1.89-.61,2.84-.9,2-.07,4.01,0,6,.19,4.78.79,7.61,3.38,7.92,8.18.4,6.16.09,12.36.09,18.64h-4.33c-1.7-.73-2.24-2-2.2-3.85.11-4.18.05-8.36,0-12.54.1-3.5-1.54-5.02-5.07-4.84Z"/>
    <path class="cls-1" d="M61.7,16.84l.88-.08h3.8v6.91h-2.59c-3.34.11-5.2,1.93-5.26,5.35-.08,4.54,0,9.08-.06,13.63,0,.19,0,.39-.06.59h-6.94c.19-5.8.18-11.35.61-16.87.16-3,1.8-5.73,4.39-7.27,1.69-.87,3.44-1.62,5.23-2.26Z"/>
    <path class="cls-13" d="M22.59,9.01c-1.9,1.11-2.51,2.77-2.49,4.94.07,9.24,0,18.47,0,27.71,0,.55,0,1.11.06,1.66l-1.68.1c-.06-.39-.11-.78-.13-1.17V13.25c0-1.72.45-3.25,2.16-4,.68-.18,1.38-.26,2.08-.24Z"/>
    <path class="cls-16" d="M61.7,16.84c-1.79.63-3.54,1.37-5.23,2.23-2.59,1.54-4.23,4.27-4.39,7.27-.43,5.52-.42,11.07-.61,16.87h6.94c-.28.14-.57.39-.86.39h-6.51c-.7,0-1.16-.13-1.14-1,.11-5.3,0-10.62.37-15.89.55-5.82,5.59-10.17,11.43-9.87Z"/>
    <path class="cls-3" d="M103.59,16.47c-1,.29-1.93.52-2.84.9-3.45,1.36-5.69,4.71-5.62,8.42-.2,5.88-.05,11.78,0,17.68-1.36.44-1.9,0-1.87-1.47.08-4.75,0-9.51.08-14.26.02-1.71.28-3.42.77-5.06,1.2-3.98,5-6.41,9.48-6.21Z"/>
    <path class="cls-15" d="M129.65,16.47c-2.82.66-5.57,1.66-6.85,4.42-1.1,2.31-1.82,4.78-2.12,7.32-.17,2.55.05,5.12.64,7.61.71,3.73,3.56,6.69,7.26,7.54.27.11.53.24.77.4-4.15-.01-7.86-2.59-9.33-6.47-1.76-4.86-1.66-10.2.27-15,1.51-3.78,5.3-6.14,9.36-5.82Z"/>
    <path class="cls-8" d="M105.92,22.25c3.53-.18,5.17,1.34,5.18,4.84,0,4.18.07,8.36,0,12.54,0,1.83.5,3.12,2.2,3.85-2.57.29-3.91-.88-3.92-3.45v-12.7c-.03-3.13-.63-4.01-3.46-5.08Z"/>
    <path class="cls-3" d="M77.45,27.24c-1.94.79-4.17,1.2-5.75,2.44-4.41,3.47-3.38,10.78,1.68,13.27.58.28,1.14.58,1.72.87-4.56.15-8.35-4.19-7.82-8.92.15-3.35,2.49-6.21,5.75-7,1.44-.42,2.94-.62,4.41-.92,0,.11.01.19.01.26Z"/>
    <path class="cls-6" d="M139.08,9.22v10.67l-.39.2-1.47-1.66v-9.21h1.86Z"/>
    <path class="cls-14" d="M76.86,16.47l-1.52.58c-2.97.87-5.12,3.46-5.43,6.54l-1.62.07c.3-4.23,4.03-7.32,8.57-7.19Z"/>
    <path class="cls-2" d="M81.08,21.88c.98.08,1.94.28,2.87.59.93.41,1.35,1.49.94,2.41-.18.42-.52.75-.94.94-.94.35-1.92.59-2.91.7.22-.1.42-.23.6-.39.55-.69,1.45-1.39,1.47-2.11s-1-1.24-1.57-1.85c-.14-.11-.3-.21-.46-.29Z"/>
    <path class="cls-2" d="M80.59,26.7l-1,.15,1-.15Z"/>
    <path class="cls-2" d="M77.45,27.24v-.23h.62l-.62.23Z"/>
    <path class="cls-11" d="M36.17,37.08c2.8-1.41,3.59-3.21,2.83-6.09-.48-1.82-2-2.25-3.43-2.78,4.23-.2,6.39,2.38,5.17,6.17-.62,1.93-2.15,2.82-4.57,2.7Z"/>
    <path class="cls-11" d="M35.59,22.21c1.38-.64,2.66-1.35,2.79-3.14.15-2.19-.34-2.94-2.85-4.1,2.92-.13,4.53,1,4.6,3.29.05,2.73-1.54,4.13-4.54,3.95Z"/>
    <path class="cls-4" d="M132.96,38.26c3.62-1.28,4.23-4.34,4.3-7.57s-.4-6.4-3.74-8.15c1.81-.28,3.58.7,4.3,2.39,1.56,3.22,1.67,6.95.3,10.25-.85,2.25-2.53,3.17-5.16,3.08Z"/>
    <path class="cls-4" d="M78.93,38.54c4.29-1.27,5-4.92,4.28-7.85l1.65-.58c1.01,5.34-1.35,8.59-5.93,8.43Z"/>
  </g>
</svg>